<svg xmlns="http://www.w3.org/2000/svg" version="1.0" preserveAspectRatio="xMidYMid meet" viewBox="2.49 -85.47 1276.43 1058.47">

<g transform="translate(-1250.000000,1600.000000) scale(0.300000,-0.300000)" fill="#000000" stroke="none">
<path fill="#008e3e" d="M5160 5609 c-304 -34 -595 -174 -729 -352 -91 -120 -131 -241 -131 -397 0 -181 53 -303 185 -428 45 -43 108 -95 138 -115 116 -77 346 -191 560 -278 320 -130 736 -348 841 -440 l49 -43 -7 139 c-12 243 -7 229 -88 276 -111 65 -275 144 -373 179 -589 213 -839 359 -962 562 -149 246 -15 596 287 752 322 167 709 84 944 -200 94 -113 157 -258 172 -394 l7 -65 13 60 c7 33 23 150 35 259 l23 199 -34 29 c-67 56 -165 122 -245 163 -167 85 -435 122 -685 94z"/>
<path d="M6900 5599 c-131 -17 -284 -71 -357 -125 -17 -13 -34 -24 -37 -24 -3 0 -6 15 -6 34 0 18 -3 48 -6 65 l-7 31 -101 -5 -101 -5 -2 -1401 c-3 -1524 1 -1430 -55 -1544 -35 -71 -128 -184 -191 -231 -189 -141 -480 -212 -764 -185 -298 29 -489 138 -696 396 -101 127 -180 287 -238 483 -12 41 -25 70 -29 65 -5 -4 -16 -46 -25 -93 -9 -47 -27 -130 -40 -185 -62 -263 -76 -338 -68 -345 44 -40 242 -167 339 -217 286 -149 527 -206 869 -206 255 -1 456 35 659 116 269 107 443 263 507 454 21 65 21 66 9 486 -6 232 -14 542 -17 688 l-6 266 229 7 c400 11 673 -23 839 -107 184 -92 308 -209 389 -366 101 -198 131 -341 123 -596 -4 -156 -9 -195 -35 -295 -67 -262 -187 -409 -425 -520 -104 -49 -198 -70 -348 -77 -136 -7 -251 8 -353 44 -87 31 -256 115 -312 155 l-41 29 -111 -113 c-76 -76 -108 -115 -99 -120 6 -4 54 -8 105 -8 86 0 92 1 92 20 0 35 27 34 143 -4 165 -53 318 -76 505 -76 470 1 838 135 1009 367 92 125 133 225 163 401 35 202 22 496 -28 642 -60 174 -191 347 -354 471 -123 92 -243 144 -413 179 l-59 12 76 28 c130 47 197 89 283 175 64 63 89 98 122 165 54 113 67 172 66 310 -1 146 -27 248 -90 357 -106 180 -288 304 -542 367 -172 44 -399 57 -571 35z m420 -63 c99 -21 225 -84 295 -147 167 -153 254 -479 195 -728 -50 -209 -173 -333 -405 -410 -154 -51 -251 -62 -577 -68 l-298 -6 0 64 c0 60 -7 231 -30 802 l-10 239 30 43 c78 113 230 194 425 226 72 12 288 3 375 -15z"/>
</g>
</svg>